PathFileType	4	(X/Y/Z)	C:\Users\Basilio\Documents\Thesis Gigler\squatting_fais\c3dfiles\075\SLS_back_pre1\markers_experimental.trc
DataRate	CameraRate	NumFrames	NumMarkers	Units	OrigDataRate	OrigDataStartFrame	OrigNumFrames
200.000000	200.000000	4	61	mm	200.000000	1187	1357
Frame#	Time	FHD			LBHD			C7			T10			CLAV			LSHO			LUUPA			LMUPA			LDUPA			LLEP			LMEP			LRAD			LUL			LRFIN			RSHO			RUPA1			RMUPA			RDUPA			RLEP			RMEP			RRAD			RUL			RUFIN			LASI			RASI			USACR			LSACR			RSACR			LTHI1			LTHI2			LTHI3			LTHI4			LLFC			LMFC			LTIB1			LTIB2			LTIB3			LTIB4			LLMAL			LMMAL			LHEE			LMT1			LMT2			LMT5			RTHI			RTHI2			RTHI3			RTHI4			RLFC			RMFC			RTIB1			RTIB2			RTIB3			RTIB4			RLMAL			RMMAL			RHEE			RMT1			RMT2			RMT5			RBHD			
		X1	Y1	Z1	X2	Y2	Z2	X3	Y3	Z3	X4	Y4	Z4	X5	Y5	Z5	X6	Y6	Z6	X7	Y7	Z7	X8	Y8	Z8	X9	Y9	Z9	X10	Y10	Z10	X11	Y11	Z11	X12	Y12	Z12	X13	Y13	Z13	X14	Y14	Z14	X15	Y15	Z15	X16	Y16	Z16	X17	Y17	Z17	X18	Y18	Z18	X19	Y19	Z19	X20	Y20	Z20	X21	Y21	Z21	X22	Y22	Z22	X23	Y23	Z23	X24	Y24	Z24	X25	Y25	Z25	X26	Y26	Z26	X27	Y27	Z27	X28	Y28	Z28	X29	Y29	Z29	X30	Y30	Z30	X31	Y31	Z31	X32	Y32	Z32	X33	Y33	Z33	X34	Y34	Z34	X35	Y35	Z35	X36	Y36	Z36	X37	Y37	Z37	X38	Y38	Z38	X39	Y39	Z39	X40	Y40	Z40	X41	Y41	Z41	X42	Y42	Z42	X43	Y43	Z43	X44	Y44	Z44	X45	Y45	Z45	X46	Y46	Z46	X47	Y47	Z47	X48	Y48	Z48	X49	Y49	Z49	X50	Y50	Z50	X51	Y51	Z51	X52	Y52	Z52	X53	Y53	Z53	X54	Y54	Z54	X55	Y55	Z55	X56	Y56	Z56	X57	Y57	Z57	X58	Y58	Z58	X59	Y59	Z59	X60	Y60	Z60	X61	Y61	Z61	

1188	5.935	-265.0773315429688	1725.8583984375	-855.694519042969	-402.4593505859376	1598.316650390625	-921.983337402344	-438.1450500488282	1488.231323242188	-862.9125976562502	-451.1578063964845	1161.760375976563	-862.8833618164065	-295.9035644531251	1424.8837890625	-860.9827880859377	-326.3178100585938	1454.491088867188	-1021.586242675781	-328.7386474609376	1267.72412109375	-1156.034912109375	-289.4535827636719	1243.75830078125	-1136.216186523438	-309.1527404785157	1203.47021484375	-1177.999877929688	-279.3092346191407	1122.405639648438	-1179.072875976563	-357.1119384765626	1099.886596679688	-1130.181762695313	-197.137191772461	1084.142578125	-941.2962646484377	-155.7135620117188	1037.436889648438	-982.398376464844	-130.1106414794922	1078.049560546875	-884.2362060546877	-333.2749023437501	1445.67626953125	-697.3704833984376	-353.6321105957032	1245.227783203125	-583.5718383789064	-315.7263183593751	1217.943725585938	-600.2797851562501	-346.4308776855469	1176.221557617188	-567.9976196289064	-327.6355285644532	1106.324584960938	-566.6848754882814	-386.9910583496095	1071.997314453125	-618.9182739257814	-183.040023803711	1085.224243164063	-798.461120605469	-163.1305389404297	1032.8466796875	-746.4005126953126	-106.6063003540039	1072.436767578125	-839.9094848632815	-288.3101806640626	995.0723266601565	-992.9372558593752	-274.6366271972657	1002.66357421875	-741.4939575195314	-440.9256591796876	1058.83837890625	-864.075622558594	-447.8724060058595	1027.038208007813	-890.3345947265627	-444.2131652832032	1028.671630859375	-833.737731933594	-326.0723876953126	748.1256103515626	-1063.972290039063	-292.9550781250001	670.9869384765626	-1062.264892578125	-246.967514038086	678.0873413085939	-1045.899169921875	-317.8265686035157	616.8383789062501	-1052.57421875	-321.7594909667969	508.2624511718751	-1043.679931640625	-282.3082885742188	493.8773803710939	-919.6268310546877	-273.4255676269532	383.1867065429688	-1010.925720214844	-334.4125366210938	348.4710083007813	-1061.949829101563	-294.9841613769532	338.5723876953126	-1041.347290039063	-305.7024536132813	258.9238586425782	-1013.471618652344	-390.7434387207032	127.6225357055664	-1033.124145507813	-363.0029907226563	136.2439422607422	-952.5875244140627	-449.5349121093751	100.9074859619141	-995.0335693359377	-248.0262298583985	52.70758056640626	-962.049255371094	-242.3940124511719	56.00211715698244	-1010.654907226563	-281.0153808593751	44.22842407226563	-1064.13671875	-334.7556762695313	796.8441162109377	-676.9221801757814	-296.7965393066407	743.9135742187501	-682.3045654296876	-265.9697265625001	750.3591308593751	-694.0957641601564	-325.1192932128907	663.3236083984376	-693.7030639648439	-342.9295959472657	510.0106811523439	-726.2768554687501	-306.0540466308594	504.4790344238282	-851.354919433594	-296.0666198730469	362.5784301757813	-792.980895996094	-348.2351074218751	285.8308715820313	-735.5407104492189	-311.9743652343751	280.1282043457032	-767.7794799804689	-323.6322021484376	236.057113647461	-804.1878662109377	-392.6201782226564	116.4688110351563	-769.2067871093752	-365.6505737304688	141.0816650390625	-848.9274902343752	-450.6787414550782	98.9363708496094	-825.022155761719	-246.2943267822266	58.32173538208009	-836.488708496094	-246.3679962158204	55.7406692504883	-794.0136718750002	-283.9836425781251	35.18957519531251	-741.8973388671876	-366.2947082519532	1639.648315429688	-769.4246215820315	
1189	5.94	-265.0574035644532	1725.909912109375	-855.589294433594	-402.3422241210939	1598.37646484375	-922.0882568359377	-437.9949035644532	1488.193969726563	-863.2017822265627	-451.0315856933595	1161.7900390625	-863.2490844726565	-295.7030029296876	1424.853881835938	-860.983825683594	-326.0262451171876	1454.476318359375	-1021.772033691406	-329.1738586425782	1267.519775390625	-1156.088623046875	-289.7533569335938	1243.397338867188	-1136.117553710938	-309.6446533203126	1203.192993164063	-1178.024780273438	-280.4187927246094	1121.999633789063	-1179.205810546875	-358.1052551269532	1099.779907226563	-1129.902465820313	-197.5857086181641	1083.893432617188	-941.2285766601565	-156.5889282226563	1037.019287109375	-982.5120239257815	-130.5170593261719	1077.7099609375	-884.3200683593752	-333.4799499511719	1445.685302734375	-697.4995117187501	-354.2368164062501	1245.130859375	-583.8551635742189	-316.3207092285157	1217.776000976563	-600.4611206054689	-347.2454833984376	1176.02685546875	-568.2672729492189	-328.6557617187501	1106.114868164063	-567.0931396484376	-388.0025634765626	1071.965942382813	-619.6060791015626	-183.5323791503907	1084.998413085938	-798.6124267578127	-163.7301177978516	1032.569091796875	-746.4436645507814	-107.1307449340821	1072.172973632813	-840.000183105469	-287.9408874511719	995.059997558594	-993.0513916015627	-274.6654968261719	1002.627502441406	-741.6063842773439	-440.778533935547	1058.82568359375	-864.4336547851565	-447.6372070312501	1027.01708984375	-890.7522583007815	-444.093475341797	1028.691040039063	-834.080017089844	-325.6650695800782	748.2297363281251	-1063.972534179688	-293.1675415039063	671.1914672851564	-1062.624145507813	-246.6996765136719	678.0512695312501	-1045.873657226563	-317.3808288574219	616.7944946289064	-1052.697265625	-321.4072265625001	508.1588439941407	-1043.736572265625	-282.2189941406251	493.8606567382814	-919.6722412109377	-273.2259521484376	383.1112976074219	-1010.919738769531	-334.2446594238282	348.5357055664063	-1061.957641601563	-294.7276611328126	338.5614318847657	-1041.363525390625	-305.6071166992188	258.9643554687501	-1013.497131347656	-390.6767883300782	127.6522216796875	-1033.10205078125	-362.9491577148438	136.2230682373047	-952.5449829101565	-449.424041748047	100.8784103393555	-995.0086059570315	-248.551498413086	51.99826431274415	-962.344665527344	-242.2945404052735	55.97951507568361	-1010.551025390625	-281.0328063964844	44.17567825317384	-1064.086181640625	-334.8702087402344	796.8760375976565	-677.0662841796876	-296.8622741699219	743.8522338867189	-682.4099731445314	-266.0657958984376	750.3695068359376	-694.2006225585939	-325.1931457519532	663.3026123046876	-693.7976684570314	-342.8359069824219	509.9896850585939	-726.3843383789064	-306.0633239746094	504.4608764648439	-851.2978515625002	-295.9837036132813	362.5368652343751	-792.9466552734377	-348.1049804687501	285.8683471679688	-735.4754028320314	-312.0399475097657	280.0767211914063	-767.8161010742189	-323.4880676269532	236.0359039306641	-804.2626953125002	-392.5875854492189	116.5016021728516	-769.2105712890627	-365.7298583984376	141.1520690917969	-849.037048339844	-450.6997680664064	98.93888854980472	-825.0133056640627	-246.1886291503907	58.30664825439455	-836.431579589844	-246.3519134521485	55.66841125488283	-793.9860839843752	-283.9702148437501	35.20124435424805	-741.8778686523439	-366.2884826660157	1639.575317382813	-769.5184326171877	
1190	5.945	-264.1485595703126	1725.750610351563	-854.8314208984377	-402.1997070312501	1598.325805664063	-922.2305908203127	-437.8161926269532	1488.201782226563	-863.456237792969	-450.8801574707032	1161.744384765625	-863.579772949219	-295.6149291992188	1424.87255859375	-861.1096191406252	-325.4863281250001	1454.361572265625	-1021.810424804688	-329.4978942871094	1267.242431640625	-1156.071655273438	-290.7109985351563	1243.1591796875	-1136.608520507813	-310.3072204589844	1202.959228515625	-1178.019165039063	-281.2076721191407	1121.496215820313	-1178.989379882813	-358.9926147460938	1099.6484375	-1129.642211914063	-197.9982910156251	1083.625854492188	-941.2061157226565	-157.3244018554688	1036.602661132813	-982.3968505859377	-130.8580017089844	1077.25537109375	-884.4395141601565	-333.6311950683594	1445.662841796875	-697.5777587890626	-354.8839416503907	1244.999389648438	-584.1287841796876	-316.9859619140626	1217.533447265625	-600.7158813476564	-348.0762634277344	1175.813720703125	-568.7879638671876	-329.5353698730469	1105.89453125	-567.5148315429689	-388.8138122558595	1071.917602539063	-620.1730957031251	-184.0545196533203	1084.736083984375	-798.814147949219	-164.4124755859375	1032.320068359375	-746.6116943359376	-107.5898742675782	1071.935791015625	-840.0620117187502	-287.6046142578126	995.111511230469	-993.0606689453127	-274.6627807617188	1002.593322753906	-741.6672363281251	-440.6492004394532	1058.850219726563	-864.7659301757815	-447.4542541503907	1027.037719726563	-891.1340942382815	-444.015106201172	1028.660522460938	-834.4165649414065	-325.9097900390626	748.3577270507814	-1064.273071289063	-292.1898803710938	670.9873046875001	-1062.460571289063	-246.1694641113282	677.9598999023439	-1045.845825195313	-317.1217041015626	616.8482666015626	-1052.811401367188	-321.2854003906251	508.1283264160157	-1043.814453125	-282.1610412597657	493.8503417968751	-919.7266235351565	-273.0292663574219	383.1512145996094	-1010.846862792969	-334.1044311523438	348.5536499023438	-1061.987915039063	-294.4852294921876	338.5569458007813	-1041.343383789063	-305.4151611328126	258.8725891113282	-1013.423828125	-390.4961853027345	127.5646438598633	-1033.0615234375	-362.9423828125001	136.2513122558594	-952.5539550781252	-449.4855957031251	100.9217147827149	-995.0269775390627	-248.4926757812501	51.95425415039064	-962.229187011719	-242.2753448486329	55.9276580810547	-1010.513244628906	-281.0676574707032	44.15758514404298	-1064.082275390625	-335.0289001464844	796.8252563476565	-677.2554321289064	-296.8822631835938	743.9759521484376	-682.2596435546876	-266.0992736816407	750.4349975585939	-694.1976318359376	-325.2330627441407	663.2913818359376	-693.8809204101564	-342.8167114257813	509.9786987304689	-726.3862304687501	-305.7863159179688	504.4572143554689	-851.4070434570315	-295.8920593261719	362.5524291992188	-792.9685668945315	-348.0637512207032	285.9029235839844	-735.4208374023439	-311.8283996582032	280.0303649902344	-767.7356567382814	-323.5014648437501	236.0421600341797	-804.259460449219	-392.5752868652345	116.5272979736328	-769.249938964844	-365.6156616210938	141.1194763183594	-849.004821777344	-450.6802673339845	98.93320465087893	-825.006530761719	-246.1742858886719	58.32740402221681	-836.4354248046877	-246.3068542480469	55.70335006713869	-793.9797363281252	-283.9794006347657	35.17309951782227	-741.9113159179689	-366.2837829589844	1639.493041992188	-769.5991210937502	
1191	5.95	-264.1669006347657	1725.798828125	-854.7548828125002	-402.0786132812501	1598.109741210938	-922.3079223632815	-437.7153930664064	1488.18994140625	-863.7243652343752	-450.780487060547	1161.725341796875	-863.856140136719	-296.2400817871094	1425.000244140625	-861.6472167968752	-325.2908630371094	1454.369873046875	-1022.062561035156	-329.8959350585938	1267.012573242188	-1156.070922851563	-290.3520507812501	1242.679321289063	-1136.129272460938	-310.9097900390626	1202.595825195313	-1177.838623046875	-283.3599548339844	1121.196411132813	-1179.376831054688	-359.8364868164063	1099.432983398438	-1129.252685546875	-198.4810485839844	1083.265502929688	-941.1964111328127	-157.786376953125	1036.15576171875	-982.2400512695315	-131.2336120605469	1076.803466796875	-884.6082763671877	-333.7957763671876	1445.6376953125	-697.7340698242189	-355.6006774902344	1244.845092773438	-584.4711303710939	-317.6723022460938	1217.346801757813	-601.0426025390626	-348.9570922851563	1175.63037109375	-569.2199096679689	-330.4832153320313	1105.775268554688	-567.9416503906251	-389.5955200195314	1071.724609375	-620.9321289062501	-184.5758972167969	1084.546997070313	-798.9689941406252	-165.0418701171875	1032.052368164063	-746.7392578125001	-108.2236938476563	1071.695068359375	-840.284362792969	-287.2561950683594	995.1748657226565	-993.0447998046877	-274.7471313476563	1002.611877441406	-741.7449340820314	-440.3743896484376	1058.882080078125	-865.169860839844	-447.2440795898439	1027.041259765625	-891.4941406250002	-443.9140014648439	1028.638916015625	-834.7601318359377	-325.5379943847657	748.2570190429689	-1064.421508789063	-291.8729248046876	670.9563598632814	-1062.431518554688	-246.9747009277344	678.1859741210939	-1046.341674804688	-316.7714538574219	616.8285522460939	-1052.886474609375	-321.0998840332032	508.1586914062501	-1043.87841796875	-282.0711059570313	493.8796691894532	-919.7471313476565	-272.8301696777344	383.1088562011719	-1010.8203125	-333.8970031738282	348.5500488281251	-1062.00048828125	-294.2999877929688	338.4920959472657	-1041.361450195313	-305.2560119628907	258.8601989746094	-1013.36767578125	-391.3634338378907	128.040771484375	-1033.116577148438	-362.8980102539063	136.2718200683594	-952.5603637695315	-449.3536071777345	100.9523544311524	-995.0239868164065	-248.0187225341797	52.64492797851564	-961.9503173828127	-242.2622222900391	55.83597564697267	-1010.520263671875	-281.0664367675782	44.09677505493165	-1064.067138671875	-335.1619262695313	796.782165527344	-677.4573364257814	-296.9187927246094	744.1363525390626	-682.1818237304689	-266.1756896972657	750.4540405273439	-694.2231445312501	-325.2912902832032	663.2883911132814	-693.9815063476564	-342.7513732910157	509.9810485839845	-726.4595947265626	-305.6129455566407	504.4641418457032	-851.4522705078127	-295.7983398437501	362.5266418457032	-793.0180664062502	-348.1124267578126	285.8392028808594	-735.6056518554689	-311.8216247558594	279.9846191406251	-767.8004150390626	-323.4317016601563	235.9888458251954	-804.2630615234377	-392.5898437500001	116.5145492553711	-769.2761230468752	-365.8299255371094	141.1683197021485	-849.1189575195315	-450.6730957031251	98.97737884521487	-825.0459594726565	-246.2736816406251	58.32972717285158	-836.4748535156252	-246.3435821533204	55.67950439453126	-793.9899902343752	-283.9852905273438	35.17935180664063	-741.9050292968751	-366.2803649902344	1639.401977539063	-769.6660156250002	
